Normalized EMG Linear Envelopes
nRows=176
nColumns=4

endheader
time	 med_gas_r	  soleus_r	 tib_ant_r	
3.99974	  0.071533	  0.082918	  0.026251	
4.06224	  0.072539	  0.079083	  0.025673	
4.12474	  0.073990	  0.076202	  0.025321	
4.18723	  0.074965	  0.075456	  0.025461	
4.24973	  0.075373	  0.075393	  0.025897	
4.31222	  0.075311	  0.074239	  0.026216	
4.37472	  0.073957	  0.071578	  0.026099	
4.43722	  0.073469	  0.069242	  0.025196	
4.49971	  0.073752	  0.069106	  0.024046	
4.56221	  0.072748	  0.071476	  0.023063	
4.6247	  0.072408	  0.074847	  0.022547	
4.6872	  0.073050	  0.077672	  0.022635	
4.7497	  0.074628	  0.079471	  0.023083	
4.81219	  0.076304	  0.081376	  0.023618	
4.87469	  0.075259	  0.083633	  0.024060	
4.93718	  0.073502	  0.084497	  0.024446	
4.99968	  0.072540	  0.084486	  0.024698	
5.06218	  0.072196	  0.084097	  0.024579	
5.12467	  0.073508	  0.083982	  0.024361	
5.18717	  0.074731	  0.084284	  0.024388	
5.24966	  0.073636	  0.084159	  0.024773	
5.31216	  0.070900	  0.083552	  0.025244	
5.37466	  0.067319	  0.082583	  0.025492	
5.43715	  0.065207	  0.082051	  0.025767	
5.49965	  0.065558	  0.083125	  0.026348	
5.56214	  0.067883	  0.084850	  0.026940	
5.62464	  0.070550	  0.084373	  0.027317	
5.68714	  0.073573	  0.081147	  0.026680	
5.74963	  0.074267	  0.075949	  0.025134	
5.81213	  0.069191	  0.070082	  0.023473	
5.87462	  0.067002	  0.067098	  0.022053	
5.93712	  0.079871	  0.077651	  0.021770	
5.99962	  0.122831	  0.117391	  0.023884	
6.06211	  0.216721	  0.201194	  0.030396	
6.12461	  0.365799	  0.326811	  0.043590	
6.1871	  0.541283	  0.457150	  0.062816	
6.2496	  0.678866	  0.558026	  0.082871	
6.3121	  0.747172	  0.627161	  0.098163	
6.37459	  0.772890	  0.676935	  0.109736	
6.43709	  0.779094	  0.713963	  0.120842	
6.49958	  0.791710	  0.751683	  0.131451	
6.56208	  0.817971	  0.790257	  0.139295	
6.62458	  0.840262	  0.819847	  0.145093	
6.68707	  0.825014	  0.826937	  0.149004	
6.74957	  0.795605	  0.829878	  0.148675	
6.81206	  0.768432	  0.864423	  0.143857	
6.87456	  0.739754	  0.919823	  0.136231	
6.93706	  0.710090	  0.959106	  0.128663	
6.99955	  0.690124	  0.973295	  0.122670	
7.06205	  0.687829	  0.959879	  0.115661	
7.12454	  0.698384	  0.904198	  0.107041	
7.18704	  0.695027	  0.816206	  0.099807	
7.24954	  0.677974	  0.711185	  0.094165	
7.31203	  0.660754	  0.629319	  0.090870	
7.37453	  0.666175	  0.570939	  0.090840	
7.43702	  0.669925	  0.520967	  0.090221	
7.49952	  0.668071	  0.496346	  0.086063	
7.56202	  0.683407	  0.494369	  0.080680	
7.62451	  0.682763	  0.498928	  0.075957	
7.68701	  0.669119	  0.510532	  0.072673	
7.7495	  0.616570	  0.514874	  0.072387	
7.812	  0.571342	  0.528816	  0.076481	
7.8745	  0.552453	  0.553614	  0.082683	
7.93699	  0.544034	  0.589185	  0.088682	
7.99949	  0.561513	  0.631586	  0.094623	
8.06198	  0.592591	  0.662906	  0.098103	
8.12448	  0.645065	  0.675290	  0.098360	
8.18698	  0.699333	  0.672029	  0.098809	
8.24947	  0.728378	  0.659720	  0.099934	
8.31197	  0.725963	  0.640834	  0.100248	
8.37446	  0.715170	  0.611773	  0.098992	
8.43696	  0.711087	  0.581321	  0.095663	
8.49946	  0.706020	  0.572386	  0.091544	
8.56195	  0.691183	  0.602841	  0.089139	
8.62445	  0.668292	  0.645272	  0.087413	
8.68694	  0.652662	  0.667574	  0.085382	
8.74944	  0.650219	  0.676307	  0.082917	
8.81194	  0.642325	  0.653911	  0.079763	
8.87443	  0.625943	  0.602278	  0.076244	
8.93693	  0.611420	  0.550869	  0.073426	
8.99942	  0.594819	  0.516894	  0.072918	
9.06192	  0.596114	  0.509464	  0.076497	
9.12442	  0.617867	  0.527413	  0.083959	
9.18691	  0.654319	  0.555148	  0.091658	
9.24941	  0.688797	  0.581226	  0.096028	
9.3119	  0.726596	  0.592848	  0.097336	
9.3744	  0.768602	  0.605703	  0.097994	
9.4369	  0.796279	  0.634800	  0.099021	
9.49939	  0.792426	  0.661696	  0.099322	
9.56189	  0.761959	  0.682047	  0.100296	
9.62438	  0.724715	  0.694852	  0.103496	
9.68688	  0.704272	  0.711095	  0.104785	
9.74938	  0.698040	  0.731416	  0.102837	
9.81187	  0.701366	  0.754616	  0.099614	
9.87437	  0.684625	  0.770327	  0.098075	
9.93686	  0.666362	  0.774836	  0.098727	
9.99936	  0.663329	  0.756250	  0.097463	
10.0619	  0.660275	  0.702389	  0.092087	
10.1244	  0.648876	  0.630997	  0.085362	
10.1868	  0.656421	  0.572067	  0.079887	
10.2493	  0.698890	  0.552969	  0.077842	
10.3118	  0.757003	  0.582555	  0.079362	
10.3743	  0.777692	  0.634653	  0.082270	
10.4368	  0.764797	  0.688305	  0.083150	
10.4993	  0.722891	  0.722776	  0.080630	
10.5618	  0.669665	  0.737772	  0.076333	
10.6243	  0.633278	  0.727863	  0.073469	
10.6868	  0.610020	  0.687761	  0.073155	
10.7493	  0.593934	  0.650579	  0.074659	
10.8118	  0.593583	  0.621385	  0.075580	
10.8743	  0.620585	  0.608744	  0.075760	
10.9368	  0.656713	  0.626770	  0.075178	
10.9993	  0.674491	  0.649996	  0.072969	
11.0618	  0.678053	  0.649167	  0.070657	
11.1243	  0.701178	  0.640651	  0.068983	
11.1868	  0.756155	  0.641183	  0.068463	
11.2493	  0.850189	  0.650024	  0.069743	
11.3118	  0.950874	  0.645968	  0.072416	
11.3743	  0.998848	  0.632816	  0.075527	
11.4368	  0.976175	  0.612428	  0.078315	
11.4993	  0.890431	  0.593013	  0.080037	
11.5618	  0.796214	  0.586674	  0.080786	
11.6243	  0.734164	  0.603492	  0.081490	
11.6868	  0.689386	  0.614854	  0.080571	
11.7492	  0.644784	  0.603512	  0.075378	
11.8117	  0.586218	  0.573995	  0.066338	
11.8742	  0.512003	  0.510003	  0.057430	
11.9367	  0.451444	  0.423196	  0.051233	
11.9992	  0.419166	  0.340240	  0.049821	
12.0617	  0.409319	  0.276099	  0.051600	
12.1242	  0.407322	  0.233150	  0.054569	
12.1867	  0.390200	  0.199715	  0.058798	
12.2492	  0.351977	  0.168656	  0.065575	
12.3117	  0.302471	  0.143524	  0.074124	
12.3742	  0.262131	  0.130335	  0.081109	
12.4367	  0.235980	  0.120806	  0.083023	
12.4992	  0.219740	  0.107651	  0.080217	
12.5617	  0.212900	  0.096448	  0.076577	
12.6242	  0.214748	  0.091536	  0.072798	
12.6867	  0.229688	  0.091559	  0.069355	
12.7492	  0.243658	  0.095181	  0.070061	
12.8117	  0.237777	  0.098252	  0.072879	
12.8742	  0.226022	  0.096382	  0.073141	
12.9367	  0.218422	  0.091685	  0.068347	
12.9992	  0.217245	  0.088621	  0.059226	
13.0617	  0.220851	  0.088910	  0.050497	
13.1242	  0.222397	  0.090191	  0.045031	
13.1867	  0.219610	  0.091129	  0.042934	
13.2492	  0.215622	  0.091953	  0.042251	
13.3116	  0.210271	  0.092409	  0.043657	
13.3741	  0.202539	  0.090740	  0.046552	
13.4366	  0.191714	  0.087564	  0.050666	
13.4991	  0.179695	  0.085744	  0.055930	
13.5616	  0.175340	  0.086326	  0.060748	
13.6241	  0.181878	  0.090343	  0.063913	
13.6866	  0.199787	  0.097684	  0.064331	
13.7491	  0.222551	  0.106278	  0.064044	
13.8116	  0.228740	  0.111527	  0.063822	
13.8741	  0.210567	  0.112515	  0.064199	
13.9366	  0.193622	  0.112689	  0.066082	
13.9991	  0.188924	  0.111728	  0.067746	
14.0616	  0.192239	  0.109855	  0.070620	
14.1241	  0.199547	  0.106045	  0.072638	
14.1866	  0.219446	  0.102258	  0.073287	
14.2491	  0.243129	  0.099788	  0.071358	
14.3116	  0.244137	  0.100850	  0.066213	
14.3741	  0.221988	  0.106817	  0.060450	
14.4366	  0.203998	  0.116709	  0.055382	
14.4991	  0.195537	  0.125437	  0.052738	
14.5616	  0.190377	  0.130616	  0.054227	
14.6241	  0.184392	  0.133094	  0.059750	
14.6866	  0.170356	  0.133174	  0.067791	
14.7491	  0.157217	  0.130541	  0.074792	
14.8116	  0.151393	  0.125855	  0.079473	
14.874	  0.154452	  0.118638	  0.080331	
14.9365	  0.163139	  0.111478	  0.076986	
